<svg width="34" height="43" viewBox="0 0 34 43" fill="none" xmlns="http://www.w3.org/2000/svg">
<path d="M27.6641 42.0801H8.05859C7.89453 42.0801 7.74414 42.0117 7.60742 41.875C7.4707 41.7383 7.40234 41.5879 7.40234 41.4238V14.8457C7.40234 14.627 7.4707 14.4492 7.60742 14.3125C7.74414 14.1758 7.89453 14.1074 8.05859 14.1074H27.6641C27.8828 14.1074 28.0605 14.1758 28.1973 14.3125C28.334 14.4492 28.4023 14.627 28.4023 14.8457V41.4238C28.4023 41.5879 28.334 41.7383 28.1973 41.875C28.0605 42.0117 27.8828 42.0801 27.6641 42.0801ZM8.79688 40.6855H27.0078V15.502H8.79688V40.6855ZM30.4531 35.1074H27.6641C27.5 35.1074 27.3496 35.0391 27.2129 34.9023C27.0762 34.7656 27.0078 34.5879 27.0078 34.3691V20.4238C27.0078 20.2051 27.0762 20.0273 27.2129 19.8906C27.3496 19.7539 27.5 19.6855 27.6641 19.6855H30.4531C30.9453 19.6855 31.4102 19.7676 31.8477 19.9316C32.2852 20.0957 32.668 20.3145 32.9961 20.5879C33.2695 20.8066 33.502 21.1074 33.6934 21.4902C33.8848 21.873 33.9805 22.2832 33.9805 22.7207V31.416C33.9805 31.9082 33.8848 32.373 33.6934 32.8105C33.502 33.248 33.2422 33.6309 32.9141 33.959C32.5859 34.2871 32.2031 34.5605 31.7656 34.7793C31.3281 34.998 30.8906 35.1074 30.4531 35.1074ZM28.4023 33.7129H30.4531C30.7266 33.7129 30.9863 33.6445 31.2324 33.5078C31.4785 33.3711 31.7109 33.1934 31.9297 32.9746C32.0938 32.7559 32.2441 32.5098 32.3809 32.2363C32.5176 31.9629 32.5859 31.6895 32.5859 31.416V22.7207C32.5859 22.4473 32.5176 22.2148 32.3809 22.0234C32.2441 21.832 32.0938 21.6543 31.9297 21.4902C31.7109 21.3809 31.4785 21.2852 31.2324 21.2031C30.9863 21.1211 30.7266 21.0801 30.4531 21.0801H28.4023V33.7129ZM13.6367 35.8457C13.4727 35.8457 13.3223 35.7773 13.1855 35.6406C13.0488 35.5039 12.9805 35.3262 12.9805 35.1074V19.6855C12.9805 19.5215 13.0488 19.3711 13.1855 19.2344C13.3223 19.0977 13.4727 19.0293 13.6367 19.0293C13.8555 19.0293 14.0332 19.0977 14.1699 19.2344C14.3066 19.3711 14.375 19.5215 14.375 19.6855V35.1074C14.375 35.3262 14.3066 35.5039 14.1699 35.6406C14.0332 35.7773 13.8555 35.8457 13.6367 35.8457ZM22.0859 35.8457C21.8672 35.8457 21.6895 35.7773 21.5527 35.6406C21.416 35.5039 21.3477 35.3262 21.3477 35.1074V19.6855C21.3477 19.5215 21.416 19.3711 21.5527 19.2344C21.6895 19.0977 21.8672 19.0293 22.0859 19.0293C22.25 19.0293 22.4004 19.0977 22.5371 19.2344C22.6738 19.3711 22.7422 19.5215 22.7422 19.6855V35.1074C22.7422 35.3262 22.6738 35.5039 22.5371 35.6406C22.4004 35.7773 22.25 35.8457 22.0859 35.8457ZM3.95703 32.1543C3.41016 32.1543 2.89062 32.0449 2.39844 31.8262C1.90625 31.6074 1.49609 31.3066 1.16797 30.9238C0.785156 30.541 0.498047 30.0898 0.306641 29.5703C0.115234 29.0508 0.0195312 28.5176 0.0195312 27.9707C0.0195312 27.6426 0.0605469 27.3281 0.142578 27.0273C0.224609 26.7266 0.320312 26.4395 0.429688 26.166C0.320312 25.8926 0.224609 25.6191 0.142578 25.3457C0.0605469 25.0723 0.0195312 24.7715 0.0195312 24.4434C0.0195312 24.1152 0.279297 23.5957 0.798828 22.8848C1.31836 22.1738 1.93359 21.5723 2.64453 21.0801C2.97266 20.8613 3.24609 20.6289 3.46484 20.3828C3.68359 20.1367 3.875 19.8496 4.03906 19.5215C4.20312 19.248 4.33984 18.9473 4.44922 18.6191C4.55859 18.291 4.61328 17.9629 4.61328 17.6348V15.502C4.28516 15.2832 4.01172 15.0234 3.79297 14.7227C3.57422 14.4219 3.38281 14.0801 3.21875 13.6973C3.05469 13.3691 2.93164 13 2.84961 12.5898C2.76758 12.1797 2.72656 11.7559 2.72656 11.3184C2.72656 10.7715 2.76758 10.293 2.84961 9.88281C2.93164 9.47266 3.08203 9.07617 3.30078 8.69336C3.19141 8.47461 3.0957 8.25586 3.01367 8.03711C2.93164 7.81836 2.86328 7.59961 2.80859 7.38086C2.75391 7.16211 2.71289 6.94336 2.68555 6.72461C2.6582 6.50586 2.64453 6.28711 2.64453 6.06836C2.64453 5.24805 2.79492 4.46875 3.0957 3.73047C3.39648 2.99219 3.82031 2.34961 4.36719 1.80273C4.91406 1.31055 5.55664 0.900391 6.29492 0.572266C7.0332 0.244141 7.8125 0.0800781 8.63281 0.0800781C9.01562 0.0800781 9.41211 0.121094 9.82227 0.203125C10.2324 0.285156 10.6289 0.435547 11.0117 0.654297C11.3945 0.490234 11.791 0.353516 12.2012 0.244141C12.6113 0.134766 13.0352 0.0800781 13.4727 0.0800781C13.9102 0.0800781 14.3477 0.107422 14.7852 0.162109C15.2227 0.216797 15.6875 0.326172 16.1797 0.490234C16.2344 0.490234 16.2754 0.503906 16.3027 0.53125C16.3301 0.558594 16.3711 0.572266 16.4258 0.572266C16.7539 0.681641 17.0684 0.804688 17.3691 0.941406C17.6699 1.07812 17.957 1.25586 18.2305 1.47461C18.5586 1.25586 18.8867 1.05078 19.2148 0.859375C19.543 0.667969 19.8984 0.517578 20.2812 0.408203C20.6641 0.298828 21.0469 0.216797 21.4297 0.162109C21.8125 0.107422 22.1953 0.0800781 22.5781 0.0800781C23.4531 0.0800781 24.2871 0.216797 25.0801 0.490234C25.873 0.763672 26.5977 1.14648 27.2539 1.63867C27.9102 2.13086 28.4707 2.71875 28.9355 3.40234C29.4004 4.08594 29.7422 4.86523 29.9609 5.74023C30.5078 5.95898 31.0137 6.24609 31.4785 6.60156C31.9434 6.95703 32.3398 7.38086 32.668 7.87305C32.9961 8.31055 33.2422 8.81641 33.4062 9.39062C33.5703 9.96484 33.6523 10.5527 33.6523 11.1543C33.6523 11.9746 33.502 12.7402 33.2012 13.4512C32.9004 14.1621 32.4492 14.7637 31.8477 15.2559C31.3008 15.8027 30.6582 16.2266 29.9199 16.5273C29.1816 16.8281 28.4023 16.9785 27.582 16.9785C27.418 16.9785 27.2676 16.9102 27.1309 16.7734C26.9941 16.6367 26.9258 16.459 26.9258 16.2402C26.9258 16.0762 26.9941 15.9258 27.1309 15.7891C27.2676 15.6523 27.418 15.584 27.582 15.584C28.2383 15.584 28.8535 15.4609 29.4277 15.2148C30.002 14.9688 30.4805 14.6543 30.8633 14.2715C31.3008 13.8887 31.6426 13.4238 31.8887 12.877C32.1348 12.3301 32.2578 11.7559 32.2578 11.1543C32.2578 10.6621 32.1895 10.1973 32.0527 9.75977C31.916 9.32227 31.7109 8.91211 31.4375 8.5293C31.1641 8.14648 30.8359 7.81836 30.4531 7.54492C30.0703 7.27148 29.6328 7.05273 29.1406 6.88867C29.0312 6.88867 28.9355 6.83398 28.8535 6.72461C28.7715 6.61523 28.7031 6.50586 28.6484 6.39648C28.5391 5.68555 28.293 5.0293 27.9102 4.42773C27.5273 3.82617 27.0625 3.30664 26.5156 2.86914C25.9688 2.43164 25.3535 2.08984 24.6699 1.84375C23.9863 1.59766 23.2891 1.47461 22.5781 1.47461C22.1953 1.47461 21.8398 1.50195 21.5117 1.55664C21.1836 1.61133 20.8555 1.69336 20.5273 1.80273C20.1992 1.91211 19.8711 2.0625 19.543 2.25391C19.2148 2.44531 18.9141 2.65039 18.6406 2.86914C18.5312 2.97852 18.3945 3.0332 18.2305 3.0332C18.0664 3.0332 17.9023 2.97852 17.7383 2.86914C17.4648 2.65039 17.1777 2.45898 16.877 2.29492C16.5762 2.13086 16.2617 1.99414 15.9336 1.88477C15.9336 1.88477 15.9062 1.87109 15.8516 1.84375C15.7969 1.81641 15.7695 1.80273 15.7695 1.80273C15.332 1.69336 14.9082 1.61133 14.498 1.55664C14.0879 1.50195 13.7188 1.47461 13.3906 1.47461C13.0078 1.5293 12.6523 1.59766 12.3242 1.67969C11.9961 1.76172 11.6406 1.88477 11.2578 2.04883C11.2031 2.10352 11.1211 2.13086 11.0117 2.13086C10.9023 2.13086 10.793 2.10352 10.6836 2.04883C10.3555 1.83008 10.0137 1.67969 9.6582 1.59766C9.30273 1.51562 8.96094 1.47461 8.63281 1.47461C7.97656 1.47461 7.375 1.59766 6.82812 1.84375C6.28125 2.08984 5.78906 2.4043 5.35156 2.78711C4.96875 3.22461 4.6543 3.7168 4.4082 4.26367C4.16211 4.81055 4.03906 5.41211 4.03906 6.06836C4.03906 6.45117 4.09375 6.83398 4.20312 7.2168C4.3125 7.59961 4.47656 7.95508 4.69531 8.2832C4.75 8.39258 4.77734 8.51562 4.77734 8.65234C4.77734 8.78906 4.75 8.91211 4.69531 9.02148C4.47656 9.34961 4.32617 9.69141 4.24414 10.0469C4.16211 10.4023 4.12109 10.8262 4.12109 11.3184C4.12109 11.7012 4.14844 12.0566 4.20312 12.3848C4.25781 12.7129 4.36719 13.0137 4.53125 13.2871C4.64062 13.5605 4.79102 13.8066 4.98242 14.0254C5.17383 14.2441 5.40625 14.4355 5.67969 14.5996C5.78906 14.6543 5.87109 14.7363 5.92578 14.8457C5.98047 14.9551 6.00781 15.0645 6.00781 15.1738V17.6348C6.00781 18.0723 5.93945 18.5098 5.80273 18.9473C5.66602 19.3848 5.48828 19.7949 5.26953 20.1777C5.05078 20.5605 4.79102 20.9297 4.49023 21.2852C4.18945 21.6406 3.84766 21.9551 3.46484 22.2285C2.86328 22.6113 2.38477 23.0625 2.0293 23.582C1.67383 24.1016 1.46875 24.416 1.41406 24.5254C1.46875 24.7441 1.52344 24.9629 1.57812 25.1816C1.63281 25.4004 1.71484 25.6191 1.82422 25.8379C1.87891 25.9473 1.90625 26.0703 1.90625 26.207C1.90625 26.3438 1.87891 26.4395 1.82422 26.4941C1.71484 26.7676 1.61914 27.0137 1.53711 27.2324C1.45508 27.4512 1.41406 27.6973 1.41406 27.9707C1.41406 28.3535 1.48242 28.709 1.61914 29.0371C1.75586 29.3652 1.93359 29.666 2.15234 29.9395C2.37109 30.2129 2.63086 30.418 2.93164 30.5547C3.23242 30.6914 3.57422 30.7598 3.95703 30.7598C4.72266 30.7598 5.33789 30.6777 5.80273 30.5137C6.26758 30.3496 6.60938 30.1309 6.82812 29.8574C7.04688 29.6387 7.19727 29.3516 7.2793 28.9961C7.36133 28.6406 7.40234 28.2988 7.40234 27.9707V23.8691C7.40234 23.7051 7.4707 23.5547 7.60742 23.418C7.74414 23.2812 7.89453 23.2129 8.05859 23.2129C8.27734 23.2129 8.45508 23.2812 8.5918 23.418C8.72852 23.5547 8.79688 23.7051 8.79688 23.8691V27.9707C8.79688 28.4082 8.74219 28.873 8.63281 29.3652C8.52344 29.8574 8.30469 30.2949 7.97656 30.6777C7.64844 31.1152 7.16992 31.4707 6.54102 31.7441C5.91211 32.0176 5.05078 32.1543 3.95703 32.1543Z" fill="white"/>
</svg>
