<svg width="43" height="43" viewBox="0 0 43 43" fill="none" xmlns="http://www.w3.org/2000/svg">
<g clip-path="url(#clip0_220_63)">
<path d="M21.4414 40.2773C18.8164 40.2773 16.3145 39.6211 13.9355 38.3086C11.5566 36.9961 9.49219 35.3555 7.74219 33.3867C5.99219 31.418 4.59766 29.2988 3.55859 27.0293C2.51953 24.7598 2 22.6953 2 20.8359C2 20.6719 2.06836 20.5215 2.20508 20.3848C2.3418 20.248 2.49219 20.1797 2.65625 20.1797H40.1445C40.3633 20.1797 40.541 20.248 40.6777 20.3848C40.8145 20.5215 40.8828 20.6719 40.8828 20.8359C40.8828 22.6953 40.3633 24.7598 39.3242 27.0293C38.2852 29.2988 36.8633 31.418 35.0586 33.3867C33.3086 35.3555 31.2578 36.9961 28.9062 38.3086C26.5547 39.6211 24.0664 40.2773 21.4414 40.2773ZM3.39453 21.5742C3.55859 23.3242 4.13281 25.2109 5.11719 27.2344C6.10156 29.2578 7.41406 31.1172 9.05469 32.8125C10.6953 34.5625 12.582 36.0117 14.7148 37.1602C16.8477 38.3086 19.0898 38.8828 21.4414 38.8828C23.793 38.8828 26.0352 38.3086 28.168 37.1602C30.3008 36.0117 32.1602 34.5625 33.7461 32.8125C35.3867 31.1172 36.7129 29.2578 37.7246 27.2344C38.7363 25.2109 39.2969 23.3242 39.4062 21.5742H3.39453ZM27.1836 41.1797H14.6328C14.4141 41.1797 14.2363 41.1113 14.0996 40.9746C13.9629 40.8379 13.8945 40.6602 13.8945 40.4414C13.8945 40.2773 13.9629 40.127 14.0996 39.9902C14.2363 39.8535 14.4141 39.7852 14.6328 39.7852H27.1836C27.4023 39.7852 27.5801 39.8535 27.7168 39.9902C27.8535 40.127 27.9219 40.2773 27.9219 40.4414C27.9219 40.6602 27.8535 40.8379 27.7168 40.9746C27.5801 41.1113 27.4023 41.1797 27.1836 41.1797ZM22.6719 19.1953C22.5625 19.1953 22.4668 19.168 22.3848 19.1133C22.3027 19.0586 22.207 19.0039 22.0977 18.9492C21.9883 18.7852 21.9336 18.6074 21.9336 18.416C21.9336 18.2246 22.0156 18.0742 22.1797 17.9648L40.7188 0.246094C40.8281 0.0820312 40.9785 0 41.1699 0C41.3613 0 41.5391 0.0820312 41.7031 0.246094C41.8125 0.410156 41.8672 0.587891 41.8672 0.779297C41.8672 0.970703 41.8125 1.12109 41.7031 1.23047L23.1641 18.9492C23.0547 19.0039 22.959 19.0586 22.877 19.1133C22.7949 19.168 22.7266 19.1953 22.6719 19.1953ZM16.4375 12.9609C16.3828 12.9609 16.3145 12.9473 16.2324 12.9199C16.1504 12.8926 16.0547 12.8516 15.9453 12.7969C15.8359 12.6328 15.7812 12.4551 15.7812 12.2637C15.7812 12.0723 15.8359 11.9219 15.9453 11.8125L26.6914 0.246094C26.8008 0.0820312 26.9512 0 27.1426 0C27.334 0 27.5117 0.0820312 27.6758 0.246094C27.7852 0.355469 27.8535 0.505859 27.8809 0.697266C27.9082 0.888672 27.8398 1.06641 27.6758 1.23047L16.9297 12.7148C16.875 12.8242 16.8066 12.8926 16.7246 12.9199C16.6426 12.9473 16.5469 12.9609 16.4375 12.9609ZM20.7852 16.4883C20.457 16.4883 20.1562 16.4199 19.8828 16.2832C19.6094 16.1465 19.3359 15.9688 19.0625 15.75C18.8438 15.5312 18.6797 15.2715 18.5703 14.9707C18.4609 14.6699 18.4062 14.3555 18.4062 14.0273C18.4062 13.6992 18.4609 13.3848 18.5703 13.084C18.6797 12.7832 18.8438 12.5234 19.0625 12.3047C19.3359 12.0312 19.623 11.8398 19.9238 11.7305C20.2246 11.6211 20.5117 11.5664 20.7852 11.5664C21.1133 11.5664 21.4277 11.6211 21.7285 11.7305C22.0293 11.8398 22.3164 12.0312 22.5898 12.3047C22.8086 12.5234 22.9727 12.7832 23.082 13.084C23.1914 13.3848 23.2461 13.6992 23.2461 14.0273C23.2461 14.3555 23.1914 14.6699 23.082 14.9707C22.9727 15.2715 22.8086 15.5312 22.5898 15.75C22.3164 15.9688 22.0293 16.1465 21.7285 16.2832C21.4277 16.4199 21.1133 16.4883 20.7852 16.4883ZM20.7852 12.9609C20.6758 12.9609 20.5527 12.9883 20.416 13.043C20.2793 13.0977 20.1562 13.1797 20.0469 13.2891C19.9922 13.3984 19.9375 13.5078 19.8828 13.6172C19.8281 13.7266 19.8008 13.8633 19.8008 14.0273C19.8008 14.1367 19.8281 14.2598 19.8828 14.3965C19.9375 14.5332 19.9922 14.6562 20.0469 14.7656C20.2656 14.9297 20.5254 15.0117 20.8262 15.0117C21.127 15.0117 21.3867 14.9297 21.6055 14.7656C21.6602 14.6562 21.7148 14.5332 21.7695 14.3965C21.8242 14.2598 21.8516 14.1367 21.8516 14.0273C21.8516 13.8633 21.8242 13.7266 21.7695 13.6172C21.7148 13.5078 21.6602 13.3984 21.6055 13.2891C21.4961 13.1797 21.373 13.0977 21.2363 13.043C21.0996 12.9883 20.9492 12.9609 20.7852 12.9609Z" fill="black"/>
</g>
<defs>
<clipPath id="clip0_220_63">
<rect width="42" height="42" fill="white" transform="matrix(1 0 0 -1 0.701172 42.0801)"/>
</clipPath>
</defs>
</svg>
